HIERARCHY
ROOT Hips
{
	OFFSET 0.000000 35.082581 0.000000
	CHANNELS 6 Xposition Yposition Zposition Xrotation Yrotation Zrotation 
	JOINT Spine
	{
		OFFSET 0.000000 6.876099 0.125700
		CHANNELS 3 Xrotation Yrotation Zrotation
		JOINT Spine1
		{
			OFFSET 0.000000 5.730043 0.104720
			CHANNELS 3 Xrotation Yrotation Zrotation
			JOINT Spine1_split
			{
				OFFSET 0.000000 5.730043 0.104720
				CHANNELS 3 Xrotation Yrotation Zrotation
				JOINT Spine2
				{
					OFFSET 0.000000 5.730043 0.104720
					CHANNELS 3 Xrotation Yrotation Zrotation
					JOINT Neck
					{
						OFFSET 0.000000 10.314075 0.188496
						CHANNELS 3 Xrotation Yrotation Zrotation
						JOINT Head
						{
							OFFSET 0.000000 7.643700 -2.377400
							CHANNELS 3 Xrotation Yrotation Zrotation
							JOINT HeadTop_End
							{
								OFFSET 0.000000 43.788605 -13.619600
								CHANNELS 3 Xrotation Yrotation Zrotation
								End Site
								{
									OFFSET 0.000000 0.000000 0.000000
								}
							}
						}
					}
					JOINT LeftShoulder
					{
						OFFSET 2.196100 4.412489 0.087492
						CHANNELS 3 Xrotation Yrotation Zrotation
						JOINT LeftShoulder_split
						{
							OFFSET 2.196100 4.412489 0.087492
							CHANNELS 3 Xrotation Yrotation Zrotation
							JOINT LeftArm
							{
								OFFSET 8.771219 -2.981674 -0.026999
								CHANNELS 3 Xrotation Yrotation Zrotation
								JOINT LeftForeArm
								{
									OFFSET 8.512804 0.000000 -0.000000
									CHANNELS 3 Xrotation Yrotation Zrotation
									JOINT LeftHand
									{
										OFFSET 18.484802 0.000000 -0.000000
										CHANNELS 3 Xrotation Yrotation Zrotation
										JOINT LeftHandThumb1
										{
											OFFSET 2.499420 -1.158070 2.653252
											CHANNELS 3 Xrotation Yrotation Zrotation
											JOINT LeftHandThumb2
											{
												OFFSET 2.370079 -1.368366 1.368366
												CHANNELS 3 Xrotation Yrotation Zrotation
												JOINT LeftHandThumb3
												{
													OFFSET 2.676727 -1.545410 1.545409
													CHANNELS 3 Xrotation Yrotation Zrotation
													JOINT LeftHandThumb4
													{
														OFFSET 1.692226 -0.977005 0.977007
														CHANNELS 3 Xrotation Yrotation Zrotation
														End Site
														{
															OFFSET 0.000000 0.000000 0.000000
														}
													}
												}
											}
										}
										JOINT LeftHandIndex1
										{
											OFFSET 7.924831 -0.457527 2.345128
											CHANNELS 3 Xrotation Yrotation Zrotation
											JOINT LeftHandIndex2
											{
												OFFSET 3.643303 0.000000 0.000000
												CHANNELS 3 Xrotation Yrotation Zrotation
												JOINT LeftHandIndex3
												{
													OFFSET 3.810799 0.000000 0.000000
													CHANNELS 3 Xrotation Yrotation Zrotation
													JOINT LeftHandIndex4
													{
														OFFSET 2.403702 0.000000 0.000000
														CHANNELS 3 Xrotation Yrotation Zrotation
														End Site
														{
															OFFSET 0.000000 0.000000 0.000000
														}
													}
												}
											}
										}
										JOINT LeftHandMiddle1
										{
											OFFSET 8.563995 0.000000 -0.000000
											CHANNELS 3 Xrotation Yrotation Zrotation
											JOINT LeftHandMiddle2
											{
												OFFSET 3.861618 0.000000 0.000000
												CHANNELS 3 Xrotation Yrotation Zrotation
												JOINT LeftHandMiddle3
												{
													OFFSET 3.701603 0.000000 0.000000
													CHANNELS 3 Xrotation Yrotation Zrotation
													JOINT LeftHandMiddle4
													{
														OFFSET 2.322544 0.000000 0.000000
														CHANNELS 3 Xrotation Yrotation Zrotation
														End Site
														{
															OFFSET 0.000000 0.000000 0.000000
														}
													}
												}
											}
										}
										JOINT LeftHandRing1
										{
											OFFSET 8.426460 -0.424637 -3.286992
											CHANNELS 3 Xrotation Yrotation Zrotation
											JOINT LeftHandRing2
											{
												OFFSET 3.126408 0.000000 0.000000
												CHANNELS 3 Xrotation Yrotation Zrotation
												JOINT LeftHandRing3
												{
													OFFSET 3.085026 0.000000 0.000000
													CHANNELS 3 Xrotation Yrotation Zrotation
													JOINT LeftHandRing4
													{
														OFFSET 1.644005 0.000000 0.000000
														CHANNELS 3 Xrotation Yrotation Zrotation
														End Site
														{
															OFFSET 0.000000 0.000000 0.000000
														}
													}
												}
											}
										}
									}
								}
							}
						}
					}
					JOINT RightShoulder
					{
						OFFSET -2.196100 4.412496 0.070690
						CHANNELS 3 Xrotation Yrotation Zrotation
						JOINT RightShoulder_split
						{
							OFFSET -2.196100 4.412496 0.070690
							CHANNELS 3 Xrotation Yrotation Zrotation
							JOINT RightArm
							{
								OFFSET -8.771282 -2.981682 -0.094208
								CHANNELS 3 Xrotation Yrotation Zrotation
								JOINT RightForeArm
								{
									OFFSET -8.494598 0.000000 0.000000
									CHANNELS 3 Xrotation Yrotation Zrotation
									JOINT RightHand
									{
										OFFSET -18.483803 0.000000 0.000001
										CHANNELS 3 Xrotation Yrotation Zrotation
										JOINT RightHandThumb1
										{
											OFFSET -2.527351 -1.008072 2.575253
											CHANNELS 3 Xrotation Yrotation Zrotation
											JOINT RightHandThumb2
											{
												OFFSET -2.321518 -1.340328 1.340329
												CHANNELS 3 Xrotation Yrotation Zrotation
												JOINT RightHandThumb3
												{
													OFFSET -2.657753 -1.534454 1.534455
													CHANNELS 3 Xrotation Yrotation Zrotation
													JOINT RightHandThumb4
													{
														OFFSET -1.807510 -1.043568 1.043567
														CHANNELS 3 Xrotation Yrotation Zrotation
														End Site
														{
															OFFSET 0.000000 0.000000 0.000000
														}
													}
												}
											}
										}
										JOINT RightHandIndex1
										{
											OFFSET -8.811420 0.015533 2.887987
											CHANNELS 3 Xrotation Yrotation Zrotation
											JOINT RightHandIndex2
											{
												OFFSET -3.537502 0.000000 0.000000
												CHANNELS 3 Xrotation Yrotation Zrotation
												JOINT RightHandIndex3
												{
													OFFSET -3.356201 0.000000 0.000000
													CHANNELS 3 Xrotation Yrotation Zrotation
													JOINT RightHandIndex4
													{
														OFFSET -1.933098 0.000000 0.000000
														CHANNELS 3 Xrotation Yrotation Zrotation
														End Site
														{
															OFFSET 0.000000 0.000000 0.000000
														}
													}
												}
											}
										}
										JOINT RightHandMiddle1
										{
											OFFSET -8.178135 0.000000 0.000000
											CHANNELS 3 Xrotation Yrotation Zrotation
											JOINT RightHandMiddle2
											{
												OFFSET -3.901302 0.000000 0.000000
												CHANNELS 3 Xrotation Yrotation Zrotation
												JOINT RightHandMiddle3
												{
													OFFSET -3.909599 0.000000 0.000000
													CHANNELS 3 Xrotation Yrotation Zrotation
													JOINT RightHandMiddle4
													{
														OFFSET -2.376003 0.000000 0.000000
														CHANNELS 3 Xrotation Yrotation Zrotation
														End Site
														{
															OFFSET 0.000000 0.000000 0.000000
														}
													}
												}
											}
										}
										JOINT RightHandRing1
										{
											OFFSET -7.559013 0.014137 -2.865403
											CHANNELS 3 Xrotation Yrotation Zrotation
											JOINT RightHandRing2
											{
												OFFSET -3.449306 0.000000 0.000000
												CHANNELS 3 Xrotation Yrotation Zrotation
												JOINT RightHandRing3
												{
													OFFSET -3.362106 0.000000 0.000000
													CHANNELS 3 Xrotation Yrotation Zrotation
													JOINT RightHandRing4
													{
														OFFSET -2.076401 0.000000 0.000000
														CHANNELS 3 Xrotation Yrotation Zrotation
														End Site
														{
															OFFSET 0.000000 0.000000 0.000000
														}
													}
												}
											}
										}
									}
								}
							}
						}
					}
				}
			}
		}
	}
	JOINT LeftUpLeg
	{
		OFFSET 10.205400 -3.823500 0.155100
		CHANNELS 3 Xrotation Yrotation Zrotation
		JOINT LeftLeg
		{
			OFFSET 0.708757 -12.982077 0.567790
			CHANNELS 3 Xrotation Yrotation Zrotation
			JOINT LeftFoot
			{
				OFFSET -0.708756 -10.717838 -2.184338
				CHANNELS 3 Xrotation Yrotation Zrotation
				JOINT LeftToeBase
				{
					OFFSET 0.108149 -7.191104 7.560241
					CHANNELS 3 Xrotation Yrotation Zrotation
					JOINT LeftToe_End
					{
						OFFSET 0.070230 0.081724 4.490308
						CHANNELS 3 Xrotation Yrotation Zrotation
						End Site
						{
							OFFSET 0.000000 0.000000 0.000000
						}
					}
				}
			}
		}
	}
	JOINT RightUpLeg
	{
		OFFSET -10.205400 -3.823500 0.005500
		CHANNELS 3 Xrotation Yrotation Zrotation
		JOINT RightLeg
		{
			OFFSET -0.708756 -12.982134 0.610632
			CHANNELS 3 Xrotation Yrotation Zrotation
			JOINT RightFoot
			{
				OFFSET 0.708754 -10.717769 -1.945823
				CHANNELS 3 Xrotation Yrotation Zrotation
				JOINT RightToeBase
				{
					OFFSET -0.108140 -7.191069 7.372968
					CHANNELS 3 Xrotation Yrotation Zrotation
					JOINT RightToe_End
					{
						OFFSET -0.070227 0.081735 4.479403
						CHANNELS 3 Xrotation Yrotation Zrotation
						End Site
						{
							OFFSET 0.000000 0.000000 0.000000
						}
					}
				}
			}
		}
	}
}
MOTION
Frames: 5
Frame Time: 0.016667
0.966726 27.253590 -0.978737 -5.397675 -46.011382 -0.112448 9.463314 6.952812 -1.707176 2.187715 0.989900 -0.915630 0.000000 0.000000 0.000000 2.202829 0.982772 -0.894153 0.084651 13.220556 4.538680 8.920926 20.138140 -4.130232 0.000000 0.000000 0.000000 1.117178 3.546343 -8.633506 0.000000 0.000000 0.000000 -53.487027 4.935523 -51.502983 -0.000003 -106.358073 -0.000015 1.988603 -7.706146 -15.869236 -6.141216 -11.690806 -6.761701 9.914118 42.595512 3.409857 -0.422809 8.108074 27.509116 -0.000004 0.000002 0.000003 0.255312 3.378215 -45.814348 5.654082 5.847766 -88.067462 2.162137 4.544813 -50.866382 0.000000 -0.000000 0.000003 -0.461469 3.841595 -39.722686 6.450744 5.820366 -95.892871 2.182906 4.561579 -51.127746 0.000000 0.000001 -0.000002 0.469719 4.966836 -39.799458 8.181041 5.368635 -113.502984 3.200498 5.218128 -63.022968 0.000001 -0.000000 -0.000000 3.036139 13.027208 -5.371436 0.000000 0.000000 0.000000 -48.713708 27.172827 83.457064 -0.000024 105.988294 -0.000012 -8.345362 17.548100 8.775684 -7.341087 13.749659 7.412339 9.855761 -44.489107 -3.903273 -0.115791 -14.513081 -28.973861 0.000001 -0.000000 0.000001 -0.124364 -2.384789 45.108871 4.500596 -4.654552 88.071164 1.723237 -3.618372 50.920119 -0.000000 -0.000000 0.000001 -0.761616 -2.932905 39.031061 5.133894 -4.632750 95.881649 1.739725 -3.631706 51.181374 0.000000 -0.000001 0.000002 0.154773 -4.068821 39.122671 6.509736 -4.273581 113.462877 2.549594 -4.153927 63.067344 0.000000 -0.000000 -0.000003 -38.222749 0.278062 24.761905 64.807048 -10.597505 3.829537 -23.765213 -5.113895 -21.315759 -1.594042 0.000020 -0.000001 -0.000000 0.000001 0.000000 -13.650828 -9.632060 -38.353817 66.374808 0.334447 -6.381251 -39.259084 -15.971562 30.409740 -0.012997 -0.000006 -0.000005 0.000000 -0.000000 0.000000 
0.922598 27.197338 -0.828516 -5.368790 -45.829115 0.096259 9.619011 6.990302 -1.879908 2.382867 1.109460 -1.073440 0.000000 0.000000 0.000000 2.401568 1.100700 -1.045857 -0.057996 13.152760 4.536975 8.891155 19.766185 -3.891120 0.000000 -0.000000 0.000000 1.183349 3.599434 -8.974508 0.000000 0.000000 0.000000 -53.425525 4.522200 -51.883756 -0.000008 -105.213839 -0.000009 2.694936 -6.785475 -16.625753 -6.141216 -11.690803 -6.761704 9.914119 42.595508 3.409859 -0.422807 8.108071 27.509111 -0.000007 0.000007 -0.000002 0.255312 3.378218 -45.814348 5.654082 5.847765 -88.067462 2.162139 4.544812 -50.866382 0.000000 0.000001 -0.000000 -0.461471 3.841601 -39.722686 6.450743 5.820371 -95.892871 2.182904 4.561578 -51.127743 0.000001 -0.000000 -0.000002 0.469719 4.966836 -39.799461 8.181041 5.368633 -113.502991 3.200498 5.218129 -63.022968 -0.000001 0.000001 -0.000002 3.025177 12.911349 -5.539067 0.000000 0.000000 0.000000 -48.147936 26.895832 84.263566 -0.000083 105.577157 0.000026 -8.085370 17.722234 8.888116 -7.341089 13.749658 7.412339 9.855754 -44.489110 -3.903266 -0.115781 -14.513078 -28.973857 -0.000001 0.000000 -0.000002 -0.124363 -2.384786 45.108874 4.500591 -4.654551 88.071171 1.723238 -3.618373 50.920112 0.000000 0.000001 0.000001 -0.761614 -2.932903 39.031065 5.133891 -4.632751 95.881649 1.739723 -3.631703 51.181377 -0.000002 -0.000001 0.000002 0.154773 -4.068821 39.122671 6.509737 -4.273578 113.462877 2.549591 -4.153926 63.067337 -0.000000 0.000002 0.000000 -38.210271 0.421253 24.616495 65.290680 -10.403516 3.611287 -24.324366 -5.571081 -21.077680 -1.584888 -0.000020 -0.000008 0.000000 0.000004 0.000000 -13.579838 -9.841234 -38.810638 67.008090 -0.208323 -6.508786 -39.846043 -15.742326 29.974063 -0.247698 0.000001 -0.000009 0.000000 0.000000 -0.000000 
0.861564 27.203392 -0.680351 -5.137272 -45.482848 0.425811 9.731882 7.026774 -2.012777 2.523092 1.222476 -1.220269 0.000000 0.000000 0.000000 2.545000 1.213376 -1.187299 -0.119668 13.073312 4.516064 8.975798 19.311231 -3.677647 0.000000 -0.000000 0.000000 1.271899 3.450425 -9.352727 0.000000 0.000000 0.000000 -53.737702 4.019009 -51.821035 -0.000042 -104.376198 -0.000043 3.364568 -5.538216 -17.414090 -6.141220 -11.690812 -6.761698 9.914107 42.595512 3.409864 -0.422810 8.108077 27.509115 -0.000003 -0.000003 -0.000002 0.255312 3.378219 -45.814344 5.654083 5.847765 -88.067462 2.162142 4.544816 -50.866382 0.000000 0.000001 0.000005 -0.461469 3.841596 -39.722683 6.450741 5.820367 -95.892871 2.182906 4.561576 -51.127743 0.000001 -0.000001 0.000003 0.469718 4.966835 -39.799454 8.181043 5.368637 -113.502984 3.200501 5.218128 -63.022968 0.000001 0.000002 -0.000000 3.009248 12.882600 -5.845492 0.000000 0.000000 0.000000 -47.901766 26.454248 85.051667 0.000000 105.041800 -0.000043 -8.061770 17.824021 9.078436 -7.341089 13.749659 7.412340 9.855762 -44.489110 -3.903268 -0.115789 -14.513080 -28.973864 -0.000001 0.000003 0.000000 -0.124364 -2.384784 45.108874 4.500594 -4.654549 88.071164 1.723233 -3.618369 50.920119 0.000000 0.000001 0.000001 -0.761615 -2.932902 39.031065 5.133892 -4.632750 95.881649 1.739724 -3.631705 51.181377 -0.000001 -0.000002 -0.000001 0.154774 -4.068817 39.122671 6.509734 -4.273584 113.462877 2.549592 -4.153932 63.067344 0.000000 0.000002 -0.000001 -38.293090 0.628900 24.465796 65.323574 -10.182712 3.365589 -24.552548 -6.239570 -20.841028 -1.565044 -0.000002 0.000002 -0.000000 0.000001 0.000000 -13.627821 -10.014726 -39.366827 67.563610 -0.419917 -6.472029 -39.741524 -15.442940 29.650100 -0.837824 -0.000011 0.000009 0.000000 0.000001 0.000001 
0.781317 27.273224 -0.535984 -4.693742 -44.999875 0.849350 9.789597 7.062380 -2.093424 2.594241 1.326374 -1.342156 0.000000 0.000000 0.000000 2.618627 1.318500 -1.304866 -0.089425 12.994034 4.472788 9.137174 18.829715 -3.485249 0.000001 0.000000 -0.000000 1.361014 3.142941 -9.684716 0.000000 0.000000 0.000000 -54.368528 3.505243 -51.369911 -0.000026 -103.901787 -0.000024 3.892649 -4.154469 -18.243917 -6.141220 -11.690805 -6.761700 9.914112 42.595508 3.409858 -0.422810 8.108071 27.509111 -0.000006 -0.000002 -0.000004 0.255310 3.378219 -45.814348 5.654080 5.847767 -88.067462 2.162141 4.544816 -50.866386 0.000002 -0.000001 0.000001 -0.461471 3.841601 -39.722679 6.450744 5.820370 -95.892871 2.182906 4.561575 -51.127743 0.000002 0.000001 0.000003 0.469716 4.966835 -39.799458 8.181042 5.368635 -113.502991 3.200499 5.218130 -63.022968 0.000001 -0.000000 -0.000000 2.995744 13.013991 -6.195492 0.000000 0.000000 0.000000 -48.018159 25.955446 85.662013 -0.000030 104.429590 -0.000031 -8.242448 17.789038 9.105811 -7.341086 13.749658 7.412333 9.855756 -44.489113 -3.903271 -0.115778 -14.513078 -28.973857 -0.000000 0.000000 0.000005 -0.124364 -2.384784 45.108868 4.500596 -4.654549 88.071171 1.723238 -3.618370 50.920119 -0.000001 -0.000000 -0.000001 -0.761614 -2.932899 39.031058 5.133888 -4.632753 95.881649 1.739725 -3.631705 51.181374 -0.000000 0.000000 0.000002 0.154774 -4.068818 39.122675 6.509735 -4.273581 113.462877 2.549593 -4.153926 63.067337 0.000001 -0.000000 -0.000004 -38.457158 0.867953 24.328111 64.924998 -9.955357 3.120674 -24.477267 -7.039347 -20.625831 -1.535025 -0.000013 -0.000004 -0.000000 0.000000 0.000000 -13.876399 -10.078113 -39.991051 68.089104 -0.295423 -6.297227 -38.872253 -14.997021 29.438744 -1.682533 -0.000207 0.124187 0.000000 0.000001 0.000000 
0.679624 27.401466 -0.399188 -4.055973 -44.412246 1.332603 9.789664 7.099307 -2.119215 2.594819 1.422010 -1.430866 0.000000 0.000000 0.000000 2.620829 1.416630 -1.390369 0.028421 12.927947 4.403652 9.333214 18.379033 -3.294513 0.000001 0.000000 0.000001 1.435831 2.731611 -9.918499 0.000000 0.000000 0.000000 -55.296436 3.055659 -50.600773 -0.000010 -103.799157 0.000008 4.177167 -2.832621 -19.095641 -6.141219 -11.690805 -6.761700 9.914109 42.595512 3.409856 -0.422810 8.108077 27.509115 -0.000000 -0.000000 -0.000004 0.255310 3.378218 -45.814348 5.654076 5.847765 -88.067462 2.162141 4.544813 -50.866386 0.000000 0.000001 -0.000001 -0.461470 3.841599 -39.722686 6.450744 5.820367 -95.892871 2.182904 4.561575 -51.127746 0.000000 0.000000 -0.000002 0.469721 4.966833 -39.799461 8.181043 5.368633 -113.502991 3.200498 5.218131 -63.022961 -0.000000 -0.000001 -0.000001 2.991145 13.365083 -6.522567 0.000000 0.000000 0.000000 -48.525817 25.458796 85.967363 0.000005 103.774582 -0.000025 -8.531699 17.661747 8.805724 -7.341088 13.749663 7.412340 9.855754 -44.489100 -3.903268 -0.115779 -14.513086 -28.973857 0.000005 -0.000006 0.000002 -0.124363 -2.384781 45.108874 4.500596 -4.654549 88.071164 1.723235 -3.618364 50.920116 -0.000000 0.000003 0.000000 -0.761613 -2.932896 39.031061 5.133888 -4.632750 95.881649 1.739726 -3.631706 51.181377 0.000001 0.000001 -0.000002 0.154774 -4.068817 39.122671 6.509739 -4.273581 113.462877 2.549592 -4.153931 63.067337 0.000001 -0.000001 0.000001 -38.678282 1.108577 24.219192 64.133373 -9.755624 2.900482 -24.137349 -7.880537 -20.448323 -1.494874 -0.000015 0.000001 0.000000 0.000001 0.000000 -14.433826 -10.026476 -40.531244 68.708916 -0.168693 -6.096359 -37.494467 -14.263739 29.080306 -2.914989 -0.005868 0.648591 0.000000 0.000000 0.000001 
